<svg xmlns="http://www.w3.org/2000/svg" width="120" height="100"><linearGradient id="a" x1="-608.4" x2="-607.4" y1="354.1" y2="354.9" gradientUnits="userSpaceOnUse" gradientTransform="matrix(21.2161 0 0 -21.7879 12991.16 7752.64)"><stop offset="0"/><stop offset="1" stop-opacity="0"/></linearGradient><path fill="url(#a)" d="M84.72 39.7c4.7-2.4 17.82-11.52 18.3-11.98a13.8 13.8 0 0 0 1.5-1.62c3-4 1.11-7.62-4.44-8.03-.47-.03-1.06-.1-1.68-.16-.96 3.43-3.22 7.6-6.43 12.33a116.79 116.79 0 0 1-6.14 8.2l-.55.67c-.11.15-.27.32-.46.5-.03-.01-.02-.01-.12.06h.02z" opacity=".5"/><path fill="#fff" fill-opacity=".8" d="M80 25v2h3.6l-2.74 10.13a2.53 2.53 0 0 0-.05 1.38c.2.8.8 1.5 1.7 1.68h.2c.54.1 1 0 1.4-.17a3.4 3.4 0 0 0 1.19-.98l.55-.65c.46-.57.98-1.2 1.52-1.9 1.57-2.02 3.15-4.15 4.62-6.32 3.75-5.52 6.21-10.3 6.8-14l.04-.23-.03-.12A13.44 13.44 0 0 0 85.5 0H80v2"/><path fill="#1e98ff" d="M80 22v3h5.5c.24 0 .48 0 .71-.02l-3.43 12.7s-.16.5.2.6c.35.1.73-.4.73-.4S95.51 23.9 96.8 15.89l-.02-.15A11.44 11.44 0 0 0 85.5 2H80v3"/><path fill="#fff" d="M85.5 5H80v17h5.5a8.5 8.5 0 0 0 0-17z"/></svg>